<?xml version="1.0" standalone="no"?><!DOCTYPE svg PUBLIC "-//W3C//DTD SVG 1.1//EN" "http://www.w3.org/Graphics/SVG/1.1/DTD/svg11.dtd"><svg t="1571280898742" class="icon" viewBox="0 0 1024 1024" version="1.1" xmlns="http://www.w3.org/2000/svg" p-id="2591" xmlns:xlink="http://www.w3.org/1999/xlink" width="300" height="300"><defs><style type="text/css"></style></defs><path d="M512 895.445333c-183.104 0-332.053333-148.949333-332.053333-332.053333 0-183.082667 148.949333-332.032 332.053333-332.032 183.082667 0 332.032 148.949333 332.032 332.032S695.082667 895.445333 512 895.445333z m0-616.981333c-157.098667 0-284.906667 127.829333-284.906667 284.906667 0 157.098667 127.808 284.885333 284.906667 284.885333 157.077333 0 284.864-127.786667 284.864-284.885333 0.021333-157.077333-127.786667-284.906667-284.864-284.906667z" fill="#ffffff" p-id="2592"></path><path d="M923.285333 689.813333a49.365333 49.365333 0 0 1-49.301333-49.28v-154.261333a49.28 49.28 0 0 1 46.378667-48.981333l2.24-0.128-0.256-2.218667C897.962667 213.845333 721.536 47.125333 512 47.125333c-209.557333 0-385.984 166.72-410.346667 387.818667l-0.256 2.218667 2.24 0.128a49.258667 49.258667 0 0 1 46.336 48.981333v154.261333a49.344 49.344 0 0 1-49.28 49.28H49.28A49.344 49.344 0 0 1 0 640.533333v-154.261333a49.322667 49.322667 0 0 1 49.28-49.28h4.544l0.192-1.941333C78.741333 187.050667 275.626667 0 512 0c236.416 0 433.28 187.050667 457.941333 435.072l0.170667 1.941333h4.586667A49.344 49.344 0 0 1 1024 486.293333v154.261334a49.365333 49.365333 0 0 1-49.301333 49.28h-51.413334z m-2.112-47.146666h55.658667v-158.506667H921.173333v158.506667z m-874.005333 0H102.826667v-158.506667H47.125333l0.042667 158.506667zM308.458667 976.832h407.082666V1024H308.458667z" fill="#ffffff" p-id="2593"></path></svg>