<?xml version="1.0" standalone="no"?><!DOCTYPE svg PUBLIC "-//W3C//DTD SVG 1.1//EN" "http://www.w3.org/Graphics/SVG/1.1/DTD/svg11.dtd"><svg t="1570847362131" class="icon" viewBox="0 0 1024 1024" version="1.1" xmlns="http://www.w3.org/2000/svg" p-id="7741" xmlns:xlink="http://www.w3.org/1999/xlink" width="200" height="200"><defs><style type="text/css"></style></defs><path d="M253.952 364.203H123.904c-24.917 0-45.056 20.821-45.056 46.421v118.101c0 25.6 20.48 46.422 45.056 46.422h35.499v352.597c0 16.725 13.312 30.379 29.696 30.379s29.696-13.654 29.696-30.379V575.147h35.498c24.918 0 45.056-20.822 45.056-46.422V410.624c-0.341-25.6-22.869-46.421-45.397-46.421z m634.88-96.256h-109.91c-31.06 0-56.32 25.941-56.32 58.026v103.083c0 31.744 25.26 58.027 56.32 58.027h24.235v440.661c0 16.725 13.312 30.379 29.696 30.379s29.696-13.654 29.696-30.379V487.083h26.283c31.061 0 56.32-25.942 56.32-58.027V325.973c0-32.085-25.259-58.026-56.32-58.026z m8.533 161.109c0 4.779-4.096 8.875-8.533 8.875h-109.91c-4.437 0-8.533-4.096-8.533-8.875V325.973c0-4.778 4.096-8.874 8.534-8.874h109.909c4.779 0 8.533 4.096 8.533 8.874v103.083zM565.931 547.157H456.02c-31.061 0-56.32 25.942-56.32 58.027v103.083c0 31.744 25.259 58.026 56.32 58.026h25.259v161.451c0 16.725 13.312 30.379 29.696 30.379s29.696-13.654 29.696-30.379v-161.45h25.259c31.061 0 56.32-25.942 56.32-58.027V605.184c0-31.744-25.6-58.027-56.32-58.027z m8.533 161.11c0 4.778-4.096 8.874-8.533 8.874H456.02c-4.437 0-8.533-4.096-8.533-8.874V605.184c0-4.779 4.096-8.875 8.533-8.875h109.91c4.778 0 8.533 4.096 8.533 8.875v103.083zM862.208 81.92c0-16.725-13.312-30.379-29.696-30.379s-29.696 13.654-29.696 30.379v127.659h59.392V81.92z m-643.413 0c0-16.725-13.312-30.379-29.696-30.379s-29.696 13.654-29.696 30.379v221.525h59.392V81.92z m321.536 0c0-16.725-13.312-30.379-29.696-30.379s-29.696 13.654-29.696 30.379v399.019h59.392V81.92z" p-id="7742" fill="#ffffff"></path></svg>