<?xml version="1.0" standalone="no"?><!DOCTYPE svg PUBLIC "-//W3C//DTD SVG 1.1//EN" "http://www.w3.org/Graphics/SVG/1.1/DTD/svg11.dtd"><svg t="1571799482108" class="icon" viewBox="0 0 1024 1024" version="1.1" xmlns="http://www.w3.org/2000/svg" p-id="39806" xmlns:xlink="http://www.w3.org/1999/xlink" width="200" height="200"><defs><style type="text/css"></style></defs><path d="M512.007487 0a511.992524 511.992524 0 1 0 511.992524 511.901358A511.901358 511.901358 0 0 0 512.007487 0z m97.457266 754.496106a26.529527 26.529527 0 0 0 7.111007 17.321684 28.626363 28.626363 0 0 0 18.233352 7.202174h51.873887a9.754843 9.754843 0 1 1 0 7.840342h-51.873887a35.555036 35.555036 0 0 1-23.61219-9.116676 34.552202 34.552202 0 0 1-9.116676-22.974024h-25.435526a11.213511 11.213511 0 0 1-10.393011 7.202174h-82.050084a161.820999 161.820999 0 0 1 0-323.550831 79.315081 79.315081 0 1 0 0-158.630162H437.706577a37.378372 37.378372 0 1 1 0-22.153523h46.403881a101.559771 101.559771 0 1 1 0 203.028374 139.57631 139.57631 0 1 0 0 279.15262h80.317916a27.350028 27.350028 0 0 1 6.199339-9.116676c18.233352-18.233352 62.449231-16.59235 64.363733-16.501184h51.600386a9.754843 9.754843 0 1 1 0 7.840341h-51.509219c-0.547001 0-42.48371-1.458668-58.802561 14.313182a21.241855 21.241855 0 0 0-3.829003 4.831838 11.395845 11.395845 0 0 1 4.193671 5.287672h119.610789v-9.116676l22.974023 13.21918-22.974023 13.310347v-9.116676z" p-id="39807"></path></svg>