<?xml version="1.0" standalone="no"?><!DOCTYPE svg PUBLIC "-//W3C//DTD SVG 1.1//EN" "http://www.w3.org/Graphics/SVG/1.1/DTD/svg11.dtd"><svg t="1571799128110" class="icon" viewBox="0 0 1024 1024" version="1.1" xmlns="http://www.w3.org/2000/svg" p-id="30617" xmlns:xlink="http://www.w3.org/1999/xlink" width="200" height="200"><defs><style type="text/css"></style></defs><path d="M865.1 250.2l-122.8-70.9-35.1-20.3-30.4 52.6-10.1 17.5-70.1-40.5 10.1-17.5 30.4-52.6L602 98.3 479.3 27.4c-19.4-11.2-44.1-4.6-55.3 14.8l-60.7 105.2c-11.2 19.4-4.5 44.1 14.8 55.3l105.2 60.7L139 859.8l21.8 12.6-22-12.7c-0.1 3.1-0.5 6.1 0.1 9.2l22 107.1c4 19.7 22.8 30.5 41.9 24.2l103.7-34.6c3-1 5.4-2.9 8-4.5l344.2-596.3 105.2 60.8c19.4 11.2 44.1 4.5 55.3-14.8l60.7-105.2c11.2-19.5 4.6-44.2-14.8-55.4zM270.9 712.5l36.9-63.9L375 775.2 338.1 839l-67.2-126.5z m60.7-105.2l36.9-63.9 67.3 126.5-36.9 63.9-67.3-126.5z m-140 339.2L174.1 880l20.2-35.1 20.2-35.1 32.4-56 67.3 126.5-14.6 25.4-20.2 35.1-66.8 17.8c-9.6 3.2-19-2.2-21-12.1z m268-317.9l-67.3-126.5 126-218.3 105.2 60.8-163.9 284z m324.5-238.1L398.3 167.7 459 62.5l122.8 70.9-20.2 35.1c-11.2 19.4-4.5 44.1 14.8 55.3l70.1 40.5c19.4 11.2 44.1 4.5 55.3-14.8l20.2-35.1 122.8 70.9-60.7 105.2z" p-id="30618"></path></svg>