<?xml version="1.0" standalone="no"?><!DOCTYPE svg PUBLIC "-//W3C//DTD SVG 1.1//EN" "http://www.w3.org/Graphics/SVG/1.1/DTD/svg11.dtd"><svg t="1570847659589" class="icon" viewBox="0 0 1024 1024" version="1.1" xmlns="http://www.w3.org/2000/svg" p-id="9451" width="300" height="300" xmlns:xlink="http://www.w3.org/1999/xlink"><defs><style type="text/css"></style></defs><path d="M248.96992 847.3475381333334l550.5791210666666 0L799.5490421333334 583.4928096l71.82572586666667 0 0 263.8536362666667c0 39.723927466666666-32.1028896 71.94361066666667-71.82572586666667 71.94361066666667L248.96992 919.2900565333333c-39.72283626666666 0-71.82026773333334-32.2207744-71.82026773333334-71.94361066666667L177.1496522666667 583.4928096l71.82026773333334 0L248.96992 847.3475381333334 248.96992 847.3475381333334z" fill="#ffffff" p-id="9452"></path><path d="M241.10219626666662 319.6293504L515.7848682666666 88.26391146666668 895.769296 391.66355733333336 988.5097621333333 391.66355733333336 988.5097621333333 463.48382506666667 874.1919978666666 463.48382506666667 872.3254869333334 463.48382506666667 515.7848682666666 184.65553493333329 300.27494613333334 364.1516288Z" fill="#ffffff" p-id="9453"></path><path d="M552.5049151999999 793.5964010666667L496.19196586666664 793.5964010666667 496.19196586666664 709.6743776000001 370.76682560000006 709.6743776000001 370.76682560000006 667.9114784 496.19196586666664 667.9114784 496.19196586666664 630.7471797333333 487.16176640000003 612.0034848 370.76682560000006 612.0034848 370.76682560000006 570.2460426666667 467.05584639999995 570.2460426666667 384.33995946666664 431.24231253333335 442.79557546666666 431.24231253333335 525.8618421333334 570.2460426666667 606.9982901333333 431.24231253333335 665.4320757333334 431.24231253333335 581.4478346666667 570.2460426666667 677.7575936 570.2460426666667 677.7575936 612.0034848 562.2162272 612.0034848 552.5049151999999 630.7471797333333 552.5049151999999 667.9114784 677.7575936 667.9114784 677.7575936 709.6743776000001 552.5049151999999 709.6743776000001 552.5049151999999 793.5964010666667Z" fill="#ffffff" p-id="9454"></path><path d="M87.31919573333334 425.2749365333333c0 0 15.787841066666665-14.180022399999999 44.573580799999995-20.141940266666666 17.0911232-3.5398208 49.78562026666667-6.0001216 49.78562026666667-6.0001216L181.67839679999997 341.88994346666664l136.105728 96.409088-136.105728 96.40690453333333 0-56.7211808c0 0-49.3850304-2.4253717333333333-78.93047253333334 11.194696533333333-29.54544213333333 13.622251733333334-48.578391466666666 37.12391146666666-53.097312 43.43293546666666-4.517828266666667 6.307932800000001-15.659041066666667 24.30284053333333-15.659041066666667 24.30284053333333s-1.4266250666666667-29.221258666666664 7.178970666666667-61.85244693333333C49.777228800000046 462.43159360000004 70.46165866666672 435.32462186666663 87.31919573333334 425.2749365333333L87.31919573333334 425.2749365333333zM87.31919573333334 425.2749365333333" fill="#ffffff" p-id="9455"></path></svg>